<svg xmlns="http://www.w3.org/2000/svg" width="120" height="10" viewBox="0 0 120 10">
  <defs>
    <style>
      .cls-1 {
        opacity: 0.4;
      }

      .cls-2, .cls-3 {
        fill: #fff;
      }

      .cls-3 {
        font-size: 8px;
        font-family: PalatinoLinotype-Roman, Palatino Linotype;
      }
    </style>
  </defs>
  <g id="hms-coachmark" class="cls-1" transform="translate(-0.881 -2.575)">
    <path id="Pfad_1" data-name="Pfad 1" class="cls-2" d="M.881,13h.881V10.344H3.352A2.2,2.2,0,0,0,5.81,8.028a2.193,2.193,0,0,0-2.472-2.3H.881Zm.881-3.437V6.509H3.31c1.183,0,1.634.646,1.634,1.52A1.418,1.418,0,0,1,3.324,9.563Zm7.511,3.551A2.512,2.512,0,0,0,11.744,10.3c0-1.7-.994-2.827-2.472-2.827S6.8,8.6,6.8,10.3A2.512,2.512,0,0,0,9.272,13.114Zm0-.753c-1.122,0-1.634-.966-1.634-2.06S8.15,8.227,9.272,8.227s1.633.98,1.633,2.074S10.394,12.361,9.272,12.361Zm4.8.639H14.9L16.09,8.81h.085L17.369,13h.824l1.662-5.455h-.881l-1.179,4.162h-.057l-1.15-4.162h-.895l-1.165,4.176h-.057L13.292,7.545h-.881Zm8.99.114a2.122,2.122,0,0,0,2.173-1.378l-.81-.227a1.335,1.335,0,0,1-1.364.852,1.652,1.652,0,0,1-1.7-1.8h3.96V10.2c0-2.031-1.207-2.727-2.344-2.727-1.477,0-2.457,1.165-2.457,2.841A2.505,2.505,0,0,0,23.064,13.114Zm-1.7-3.281a1.629,1.629,0,0,1,1.616-1.605A1.479,1.479,0,0,1,24.47,9.832ZM26.6,13h.838V9.548A1.29,1.29,0,0,1,28.813,8.27a2.562,2.562,0,0,1,.511.057V7.474c-.1-.007-.316-.014-.44-.014a1.484,1.484,0,0,0-1.42.909h-.057V7.545H26.6Zm5.842.114a2.122,2.122,0,0,0,2.173-1.378l-.81-.227a1.335,1.335,0,0,1-1.364.852,1.652,1.652,0,0,1-1.7-1.8H34.7V10.2c0-2.031-1.207-2.727-2.344-2.727-1.477,0-2.457,1.165-2.457,2.841A2.505,2.505,0,0,0,32.439,13.114Zm-1.7-3.281a1.629,1.629,0,0,1,1.616-1.605,1.479,1.479,0,0,1,1.492,1.605Zm7.294,3.281a1.687,1.687,0,0,0,1.591-.952h.1V13h.81V5.727h-.838V8.412h-.071a1.661,1.661,0,0,0-1.577-.937c-1.378,0-2.33,1.094-2.33,2.812S36.668,13.114,38.032,13.114Zm.114-.753c-1.051,0-1.591-.923-1.591-2.088s.526-2.045,1.591-2.045c1.023,0,1.563.824,1.563,2.045S39.154,12.361,38.145,12.361ZM45.109,13h.81v-.838h.1a1.687,1.687,0,0,0,1.591.952c1.364,0,2.315-1.094,2.315-2.827S48.973,7.474,47.6,7.474a1.661,1.661,0,0,0-1.577.938h-.071V5.727h-.838Zm.824-2.727c0-1.222.54-2.045,1.563-2.045,1.065,0,1.591.895,1.591,2.045s-.54,2.088-1.591,2.088C46.487,12.361,45.933,11.509,45.933,10.273Zm5.618,4.773a1.639,1.639,0,0,0,1.605-1.25L55.479,7.56l-.916-.014-1.506,4.347H53L51.494,7.545h-.909L52.6,13.028l-.156.426c-.305.831-.682.909-1.293.753l-.213.739A1.649,1.649,0,0,0,51.551,15.045Z" transform="translate(0 -2.84)"/>
    <text id="Hallo.TK_Event" data-name="Hallo.TK Event" class="cls-3" transform="translate(65.881 10.575)"><tspan x="0" y="0">Hallo.TK Event</tspan></text>
  </g>
</svg>
